<svg version="1.1" id="Layer_1" xmlns="http://www.w3.org/2000/svg" xmlns:xlink="http://www.w3.org/1999/xlink" viewBox="0 0 503.967 503.967" xml:space="preserve">
<g transform="translate(1)">
	<path style="fill:#A46F3E;" d="M353.383,76.8c0,23.561-19.106,42.667-42.667,42.667c-6.903,0-13.329-1.792-19.098-4.71
		c-5.333,17.502-21.402,30.31-40.636,30.31s-35.302-12.809-40.636-30.31c-5.769,2.918-12.194,4.71-19.098,4.71
		c-23.561,0-42.667-19.106-42.667-42.667H114.45l32.247,403.106c1.067,13.303,12.177,23.561,25.523,23.561h157.525
		c13.346,0,24.457-10.257,25.523-23.561L387.517,76.8H353.383z"/>
	<path style="fill:none;stroke:#8E5B32;" d="M353.383,76.8c0,23.561-19.106,42.667-42.667,42.667c-6.903,0-13.329-1.792-19.098-4.71
		c-5.333,17.502-21.402,30.31-40.636,30.31s-35.302-12.809-40.636-30.31c-5.769,2.918-12.194,4.71-19.098,4.71
		c-23.561,0-42.667-19.106-42.667-42.667H114.45l32.247,403.106c1.067,13.303,12.177,23.561,25.523,23.561h157.525
		c13.346,0,24.457-10.257,25.523-23.561L387.517,76.8H353.383L353.383,76.8z"/>
	<path style="fill:#E0AB85;" d="M310.717,119.467c-6.903,0-13.329-1.792-19.098-4.71c-5.333,17.502-21.402,30.31-40.636,30.31
		s-35.302-12.809-40.636-30.31c-5.769,2.918-12.194,4.71-19.098,4.71c-23.561,0-42.667-19.106-42.667-42.667l28.245,351.906
		c0.316,3.866,3.089,7.091,6.869,7.962c44.271,10.266,90.3,10.266,134.571,0c3.78-0.87,6.554-4.096,6.869-7.962L353.383,76.8
		C353.383,100.361,334.277,119.467,310.717,119.467"/>
	<g>
		<path style="fill:#A46F3E;" d="M233.917,196.267c0-11.785-9.549-21.333-21.333-21.333s-21.333,9.549-21.333,21.333
			s9.549,21.333,21.333,21.333S233.917,208.051,233.917,196.267"/>
		<path style="fill:#A46F3E;" d="M293.65,277.333c0-11.785-9.549-21.333-21.333-21.333s-21.333,9.549-21.333,21.333
			c0,11.785,9.549,21.333,21.333,21.333S293.65,289.118,293.65,277.333"/>
		<path style="fill:#A46F3E;" d="M250.983,371.2c0-11.785-9.549-21.333-21.333-21.333s-21.333,9.549-21.333,21.333
			c0,11.785,9.549,21.333,21.333,21.333S250.983,382.985,250.983,371.2"/>
	</g>
	<path style="fill:#FAF6E5;" d="M318.183,28.8c-7.765,0-15.002,2.022-21.487,5.291C290.706,14.413,272.624,0,250.983,0
		s-39.723,14.413-45.713,34.091c-6.485-3.268-13.722-5.291-21.487-5.291c-26.513,0-48,21.487-48,48s21.487,48,48,48
		c7.765,0,15.002-2.022,21.487-5.291c5.99,19.678,24.073,34.091,45.713,34.091s39.723-14.413,45.713-34.091
		c6.485,3.268,13.722,5.291,21.487,5.291c26.513,0,48-21.487,48-48S344.696,28.8,318.183,28.8"/>
</g>
</svg>
